<svg xmlns="http://www.w3.org/2000/svg" width="54.526" height="41.561" viewBox="0 0 54.526 41.561">
  <path id="Shape_1" data-name="Shape 1" d="M1295.655,378.84,1275.963,360.8a3.19,3.19,0,0,0-4.22,0l-1.788,1.639a2.6,2.6,0,0,0-.872,1.933,2.653,2.653,0,0,0,.872,1.956l11.488,10.548h-36.5a2.8,2.8,0,0,0-2.946,2.689v2.316a2.9,2.9,0,0,0,2.946,2.807h36.627l-11.618,10.607a2.552,2.552,0,0,0,0,3.84l1.788,1.633a3.193,3.193,0,0,0,4.221,0l19.692-18.041a2.6,2.6,0,0,0,0-3.881Z" transform="translate(-1242 -360)" fill="#2f2f2f"/>
</svg>
